<?xml version="1.0" encoding="UTF-8" standalone="no"?>
<!-- Generator: Adobe Illustrator 16.0.0, SVG Export Plug-In . SVG Version: 6.00 Build 0)  -->

<svg
   xmlns:svg="http://www.w3.org/2000/svg"
   xmlns="http://www.w3.org/2000/svg"
   xmlns:sodipodi="http://sodipodi.sourceforge.net/DTD/sodipodi-0.dtd"
   xmlns:inkscape="http://www.inkscape.org/namespaces/inkscape"
   version="1.1"
   id="onion"
   x="0px"
   y="0px"
   width="259px"
   height="316px"
   viewBox="0 0 259 316"
   enable-background="new 0 0 259 316"
   xml:space="preserve"
   inkscape:version="0.91 r13725"
   sodipodi:docname="birra.svg"><defs
     id="defs25" /><sodipodi:namedview
     pagecolor="#ffffff"
     bordercolor="#666666"
     borderopacity="1"
     objecttolerance="10"
     gridtolerance="10"
     guidetolerance="10"
     inkscape:pageopacity="0"
     inkscape:pageshadow="2"
     inkscape:window-width="1440"
     inkscape:window-height="851"
     id="namedview23"
     showgrid="false"
     inkscape:zoom="2.2436709"
     inkscape:cx="101.19817"
     inkscape:cy="158"
     inkscape:window-x="0"
     inkscape:window-y="1"
     inkscape:window-maximized="1"
     inkscape:current-layer="onion" /><path
     inkscape:connector-curvature="0"
     style="fill:#014263;fill-opacity:1"
     d="m 34.740044,311.84064 -3.009033,-3.00904 0,-72.99684 0,-72.99685 -4.35153,0 c -2.393352,0 -5.969779,-0.83683 -7.947614,-1.85962 -7.064372,-3.65312 -7.315959,-5.28553 -7.308435,-47.42204 0.004,-21.376463 0.540979,-40.293016 1.212892,-42.711617 2.678639,-9.642093 12.957538,-18.781997 22.778851,-20.254806 4.918543,-0.737581 5.423046,-1.130404 5.423046,-4.222608 0,-6.238488 4.803926,-18.913677 9.509791,-25.091627 C 66.0434,1.5893943 90.350225,-4.2974927 112.15097,6.4770288 c 9.84066,4.8635182 18.14541,13.0141322 22.56724,22.1484032 1.46246,3.021063 2.81629,5.492839 3.00849,5.492839 0.19213,0 2.69479,-0.827493 5.56132,-1.838853 6.8325,-2.410654 15.28329,-2.33038 22.75686,0.216118 11.17266,3.80691 22.6015,18.557007 22.6015,29.169639 0,2.023968 1.17157,2.90546 5.34519,4.02172 18.58403,4.970471 18.58403,32.416177 0,37.386645 -5.08559,1.36018 -5.34519,1.64931 -5.34519,5.9529 l 0,4.52331 15.01728,0.4438 c 12.88108,0.38065 15.88467,0.86902 21.11483,3.43304 7.76994,3.80912 15.26691,11.30167 19.09769,19.0864 l 3.00052,6.09753 0,57.00443 0,57.00441 -3.00052,6.09753 c -3.83078,7.78473 -11.32775,15.27727 -19.09769,19.0864 -5.23016,2.56402 -8.23375,3.05239 -21.11483,3.43306 l -15.01728,0.44378 0,11.57575 c 0,10.65575 -0.23915,11.81486 -3.00905,14.58476 l -3.00901,3.00903 -72.43964,0 -72.439604,0 -3.009032,-3.00903 z"
     id="path3479" /><path
     inkscape:connector-curvature="0"
     style="fill:#f1c357;fill-opacity:1"
     d="m 178.83917,295.23525 0,-9.80721 -68.65049,0 -68.650459,0 0,9.80721 0,9.80721 68.650459,0 68.65049,0 0,-9.80721 z"
     id="path3477" /><path
     style="fill:#f1c357;fill-opacity:1"
     d="m 149.66666,208.86688 c 0,-47.00164 -0.40979,-67.65334 -1.38491,-69.79351 -3.10215,-6.80842 -13.74244,-6.80842 -16.84458,0 -0.97513,2.14017 -1.38493,22.79187 -1.38493,69.79351 l 0,66.75395 9.80721,0 9.80721,0 0,-66.75395 z"
     id="path3469"
     inkscape:connector-curvature="0" /><path
     style="fill:#f1c357;fill-opacity:1"
     d="m 178.83915,208.86688 c 0,-47.00164 -0.4098,-67.65334 -1.38493,-69.79351 -3.10214,-6.80842 -13.74244,-6.80842 -16.84458,0 -0.97512,2.14017 -1.38493,22.79187 -1.38493,69.79351 l 0,66.75395 9.80723,0 9.80721,0 0,-66.75395 z"
     id="path3467"
     inkscape:connector-curvature="0" /><path
     inkscape:connector-curvature="0"
     style="fill:#d5e5ff;fill-opacity:1"
     d="m 220.51981,272.67173 c 5.95881,-3.10313 10.78851,-7.82754 13.90365,-13.60058 2.59764,-4.81396 2.64603,-5.90081 2.64603,-59.4562 0,-53.55541 -0.0485,-54.64226 -2.64603,-59.45622 -3.11514,-5.77302 -7.94484,-10.49744 -13.90365,-13.60058 -3.18006,-1.65606 -7.86044,-2.36115 -18.08204,-2.72407 l -13.79139,-0.48964 0,4.92746 0,4.92746 13.39939,0.41491 c 14.47843,0.44837 17.20737,1.51347 22.68894,8.85542 2.46291,3.29881 2.52755,4.76025 2.52755,57.14526 0,52.38499 -0.0646,53.84643 -2.52755,57.14524 -5.48157,7.34195 -8.21051,8.40705 -22.68894,8.85542 l -13.39939,0.41493 0,4.92744 0,4.92745 13.79139,-0.48963 c 10.2216,-0.36293 14.90198,-1.06802 18.08204,-2.72407 z"
     id="path3465" /><path
     inkscape:connector-curvature="0"
     style="fill:#ffffff;fill-opacity:1"
     d="m 214.83608,252.77448 3.23193,-3.23193 0,-49.9276 0,-49.92762 -3.23193,-3.23193 c -3.03174,-3.03175 -3.94285,-3.23191 -14.7108,-3.23191 l -11.4789,0 0,56.39146 0,56.39146 11.4789,0 c 10.76795,0 11.67906,-0.20018 14.7108,-3.23193 z"
     id="path3463" /><path
     inkscape:connector-curvature="0"
     style="fill:#ffffff;fill-opacity:1"
     d="m 30.33051,151.40221 c 0.869642,-1.04786 1.469509,-11.16255 1.682489,-28.36959 0.29601,-23.917685 0.557476,-26.883904 2.476282,-28.093356 2.765794,-1.743328 6.124273,0.234788 7.04894,4.151769 0.923823,3.913377 4.281718,5.894177 7.04894,4.158107 1.618772,-1.01558 2.29831,-3.571538 2.768671,-10.413897 0.342848,-4.98739 1.324593,-10.303484 2.181661,-11.813573 3.364232,-5.927409 13.014776,-8.156932 19.8987,-4.597123 4.537309,2.346334 6.332947,5.676847 7.462989,13.842108 3.397026,24.545415 35.130038,24.645265 39.006518,0.122726 1.41281,-8.937246 4.0922,-10.912767 14.80102,-10.912767 11.83049,0 13.90653,1.912891 14.7108,13.554668 0.46028,6.662455 1.14731,9.207508 2.75829,10.218038 3.7706,2.36523 6.35673,-0.54037 7.08677,-7.962219 0.35793,-3.638937 1.33968,-7.851747 2.18168,-9.361816 3.30355,-5.924854 12.98397,-8.158682 19.88683,-4.589075 3.6129,1.868287 7.31529,7.411041 7.31529,10.951496 0,2.845505 3.39781,2.291046 6.79816,-1.10932 5.997,-5.99698 1.77634,-16.605387 -6.60662,-16.605387 -5.95158,0 -8.99431,-3.511484 -10.09946,-11.655318 -1.21782,-8.974164 -5.8641,-15.890601 -13.3842,-19.923688 -4.59177,-2.462601 -6.71193,-2.856269 -12.64719,-2.348286 -12.31658,1.054134 -20.96172,9.140508 -22.6996,21.232407 -0.93203,6.484925 -3.7816,9.241646 -7.25329,7.016971 -4.36722,-2.798507 -1.68697,-17.505469 4.81479,-26.419518 1.23157,-1.688504 0.96541,-3.214024 -1.46661,-8.406467 -3.77971,-8.069857 -10.38545,-14.877631 -18.62983,-19.199587 -5.6012,-2.936322 -7.888626,-3.39602 -16.89826,-3.39602 -8.978831,0 -11.304724,0.463903 -16.815168,3.353911 -12.706211,6.663884 -20.540153,18.026652 -22.256301,32.281722 -0.543292,4.512743 -1.803021,8.794602 -2.914372,9.905953 -1.076626,1.076606 -4.811631,2.408663 -8.300018,2.960103 -7.468219,1.180561 -13.524289,5.381078 -16.353236,11.342669 -1.727495,3.640426 -2.011374,9.498243 -2.011374,41.504659 0,27.35014 0.391435,37.65745 1.471079,38.73711 1.944397,1.9444 5.253624,1.86929 6.93563,-0.15733 z"
     id="path3461" /><path
     inkscape:connector-curvature="0"
     style="fill:#f1c357;fill-opacity:1"
     d="m 70.598936,126.56151 c 3.924486,-2.68045 5.663509,-3.09535 11.125525,-2.65428 4.053448,0.32734 7.815373,1.51454 10.061755,3.17538 l 3.587795,2.65256 4.649049,-3.17537 c 3.92187,-2.67866 5.66174,-3.09358 11.12302,-2.65257 4.05345,0.32734 7.81538,1.51454 10.06176,3.17538 l 3.58779,2.65256 4.64905,-3.17537 c 3.92187,-2.67866 5.66176,-3.09358 11.12303,-2.65257 4.05345,0.32734 7.81538,1.51454 10.06176,3.17538 l 3.58779,2.65256 4.51367,-3.06307 c 4.8155,-3.26788 11.39267,-3.98559 16.99723,-1.85473 l 3.17811,1.20833 -0.34003,-17.31991 c -0.29315,-14.932681 -0.63572,-17.506138 -2.48536,-18.671147 -3.76854,-2.373615 -6.35644,0.531966 -7.08676,7.956728 -0.79377,8.069959 -2.60358,11.533919 -7.29302,13.958939 -7.33089,3.79094 -16.7626,1.24375 -20.23117,-5.46375 -1.02279,-1.97783 -1.85962,-6.657563 -1.85962,-10.399408 l 0,-6.803328 -4.76441,0 c -4.6947,0 -4.7763,0.07927 -5.57764,5.423046 -1.03828,6.92378 -6.30848,14.77104 -12.88772,19.18973 -17.055084,11.45433 -42.240907,0.49595 -44.808429,-19.496202 -0.887588,-6.911226 -2.040264,-9.274742 -4.786724,-9.814936 -4.03526,-0.793693 -5.632746,2.163171 -5.632746,10.425888 0,12.61358 -5.017307,18.79051 -15.262889,18.79051 l -4.351531,0 0,5.95917 0,5.9592 4.646555,-1.24023 c 5.721632,-1.52719 12.631892,-0.34615 16.412768,2.80512 1.565155,1.30454 2.959158,2.39022 3.097778,2.41265 0.138619,0.0225 2.345247,-1.38889 4.903614,-3.13626 z"
     id="path3457" /><path
     id="path3481"
     d="m 120.49418,208.86688 c 0,-47.00164 -0.4098,-67.65334 -1.38493,-69.79351 -3.10214,-6.80842 -13.74245,-6.80842 -16.84459,0 -0.97512,2.14017 -1.38493,22.79187 -1.38493,69.79351 l 0,66.75395 9.80724,0 9.80721,0 0,-66.75395 z"
     style="fill:#f1c357;fill-opacity:1"
     inkscape:connector-curvature="0" /><path
     inkscape:connector-curvature="0"
     style="fill:#f1c357;fill-opacity:1"
     d="m 91.321676,208.86688 c 0,-47.00164 -0.409804,-67.65334 -1.384929,-69.79351 -3.102143,-6.80842 -13.742439,-6.80842 -16.844582,0 -0.975126,2.14017 -1.384929,22.79187 -1.384929,69.79351 l 0,66.75395 9.80723,0 9.80721,0 0,-66.75395 z"
     id="path3483" /><path
     id="path3485"
     d="m 62.149179,208.86688 c 0,-47.00164 -0.409803,-67.65334 -1.384929,-69.79351 -3.102143,-6.80842 -13.742439,-6.80842 -16.844581,0 -0.975126,2.14017 -1.38493,22.79187 -1.38493,69.79351 l 0,66.75395 9.80723,0 9.80721,0 0,-66.75395 z"
     style="fill:#f1c357;fill-opacity:1"
     inkscape:connector-curvature="0" /><path
     id="path3511"
     d="m 178.83917,301.92072 0,-3.12174 -68.65049,0 -68.650459,0 0,3.12174 0,3.12174 68.650459,0 68.65049,0 0,-3.12174 z"
     style="fill:#d6942a;fill-opacity:1"
     inkscape:connector-curvature="0" /><path
     inkscape:connector-curvature="0"
     id="path4313"
     d="m 178.83915,210.54715 c 0,-45.81855 -0.12113,-65.95043 -0.40937,-68.03673 -0.91695,-6.63704 -4.0621,-6.63704 -4.97906,0 -0.28823,2.0863 -0.40937,22.21818 -0.40937,68.03673 l 0,65.07368 2.8989,0 2.8989,0 0,-65.07368 z"
     style="fill:#d6942a;fill-opacity:1" /><path
     style="fill:#d6942a;fill-opacity:1"
     d="m 149.28485,210.54715 c 0,-45.81855 -0.12113,-65.95043 -0.40937,-68.03673 -0.91695,-6.63704 -4.0621,-6.63704 -4.97906,0 -0.28823,2.0863 -0.40937,22.21818 -0.40937,68.03673 l 0,65.07368 2.8989,0 2.8989,0 0,-65.07368 z"
     id="path4315"
     inkscape:connector-curvature="0" /><path
     inkscape:connector-curvature="0"
     id="path4317"
     d="m 120.39345,210.54715 c 0,-45.81855 -0.12113,-65.95043 -0.40937,-68.03673 -0.91695,-6.63704 -4.0621,-6.63704 -4.97906,0 -0.28823,2.0863 -0.40937,22.21818 -0.40937,68.03673 l 0,65.07368 2.8989,0 2.8989,0 0,-65.07368 z"
     style="fill:#d6942a;fill-opacity:1" /><path
     style="fill:#d6942a;fill-opacity:1"
     d="m 90.839148,210.54715 c 0,-45.81855 -0.12113,-65.95043 -0.40937,-68.03673 -0.91695,-6.63704 -4.0621,-6.63704 -4.97906,0 -0.28823,2.0863 -0.40937,22.21818 -0.40937,68.03673 l 0,65.07368 2.8989,0 2.8989,0 0,-65.07368 z"
     id="path4319"
     inkscape:connector-curvature="0" /><path
     inkscape:connector-curvature="0"
     id="path4321"
     d="m 61.284846,210.54715 c 0,-45.81855 -0.12113,-65.95043 -0.40937,-68.03673 -0.91695,-6.63704 -4.0621,-6.63704 -4.97906,0 -0.28823,2.0863 -0.40937,22.21818 -0.40937,68.03673 l 0,65.07368 2.8989,0 2.8989,0 0,-65.07368 z"
     style="fill:#d6942a;fill-opacity:1" /><circle
     style="opacity:1;fill:#cccccc;fill-opacity:1;fill-rule:evenodd;stroke:none;stroke-width:7;stroke-linecap:round;stroke-linejoin:round;stroke-miterlimit:4;stroke-dasharray:none;stroke-dashoffset:0;stroke-opacity:1"
     id="path4323"
     cx="81.562767"
     cy="36.101555"
     r="4.9026799" /><circle
     r="4.9026799"
     cy="38.330044"
     cx="102.51058"
     id="circle4325"
     style="opacity:1;fill:#cccccc;fill-opacity:1;fill-rule:evenodd;stroke:none;stroke-width:7;stroke-linecap:round;stroke-linejoin:round;stroke-miterlimit:4;stroke-dasharray:none;stroke-dashoffset:0;stroke-opacity:1" /><circle
     style="opacity:1;fill:#cccccc;fill-opacity:1;fill-rule:evenodd;stroke:none;stroke-width:7;stroke-linecap:round;stroke-linejoin:round;stroke-miterlimit:4;stroke-dasharray:none;stroke-dashoffset:0;stroke-opacity:1"
     id="circle4327"
     cx="91.813828"
     cy="56.603668"
     r="4.9026799" /><circle
     r="4.9026799"
     cy="63.73484"
     cx="64.626236"
     id="circle4329"
     style="opacity:1;fill:#cccccc;fill-opacity:1;fill-rule:evenodd;stroke:none;stroke-width:7;stroke-linecap:round;stroke-linejoin:round;stroke-miterlimit:4;stroke-dasharray:none;stroke-dashoffset:0;stroke-opacity:1" /><circle
     style="opacity:1;fill:#cccccc;fill-opacity:1;fill-rule:evenodd;stroke:none;stroke-width:7;stroke-linecap:round;stroke-linejoin:round;stroke-miterlimit:4;stroke-dasharray:none;stroke-dashoffset:0;stroke-opacity:1"
     id="circle4331"
     cx="146.189"
     cy="61.952049"
     r="4.9026799" /><circle
     r="4.9026799"
     cy="69.974617"
     cx="161.78844"
     id="circle4333"
     style="opacity:1;fill:#cccccc;fill-opacity:1;fill-rule:evenodd;stroke:none;stroke-width:7;stroke-linecap:round;stroke-linejoin:round;stroke-miterlimit:4;stroke-dasharray:none;stroke-dashoffset:0;stroke-opacity:1" /><circle
     style="opacity:1;fill:#cccccc;fill-opacity:1;fill-rule:evenodd;stroke:none;stroke-width:7;stroke-linecap:round;stroke-linejoin:round;stroke-miterlimit:4;stroke-dasharray:none;stroke-dashoffset:0;stroke-opacity:1"
     id="circle4335"
     cx="32.981667"
     cy="82.008469"
     r="4.9026799" /><circle
     r="4.9026799"
     cy="81.117073"
     cx="101.17348"
     id="circle4337"
     style="opacity:1;fill:#cccccc;fill-opacity:1;fill-rule:evenodd;stroke:none;stroke-width:7;stroke-linecap:round;stroke-linejoin:round;stroke-miterlimit:4;stroke-dasharray:none;stroke-dashoffset:0;stroke-opacity:1" /></svg>